 <svg
    width="1341"
    height="1802"
    viewBox="0 0 1341 1802"
    fill="none"
    xmlns="http://www.w3.org/2000/svg"
  >
    <g filter="url(#filter0_ii_1224_3273)">
      <path
        fill-rule="evenodd"
        clip-rule="evenodd"
        d="M1 1493.27V308.731C166.167 119.534 409.124 0 680 0C940.669 0 1175.48 110.695 1340 287.642V1514.36C1175.48 1691.3 940.669 1802 680 1802C409.124 1802 166.167 1682.47 1 1493.27Z"
        fill="url(#paint0_linear_1224_3273)"
      />
    </g>
    <path
      fill-rule="evenodd"
      clip-rule="evenodd"
      d="M653.732 921.914C617.721 1065.68 334.914 1148.31 245.217 1182.12C8.20434 1271.45 2.22823 1462.13 2.22824 1420.77C2.22826 1379.42 2.22831 1167.89 2.22832 1062.36C2.22834 974.289 -1.40782 386.153 2.22846 390.738C81.4976 490.677 260.843 578.989 340.109 599.675C591.242 665.213 702.073 728.925 653.732 921.914Z"
      fill="url(#paint1_linear_1224_3273)"
      fill-opacity="0.79"
    />
    <path
      fill-rule="evenodd"
      clip-rule="evenodd"
      d="M861.352 491.884C766.576 470.346 608.096 439.324 561.515 346.271C514.933 253.218 528.676 142.933 571.967 94.6843C646.027 12.1431 778.28 2.27527 835.146 12.1431C892.012 22.0109 1000.14 46.9163 1125.5 118C1243 178.5 1340 288 1340 288C1340 288 1340.48 403.793 1340.48 491.884C1340.48 637.492 1335.23 1088.63 1335.23 1242.34C1335.23 1406.05 1012.99 1338.84 973.36 1190.64C929.803 1027.78 1050.9 923.548 1050.9 704.702C1050.9 620.265 956.128 513.422 861.352 491.884Z"
      fill="url(#paint2_linear_1224_3273)"
      fill-opacity="0.79"
    />
    <defs>
      <filter
        id="filter0_ii_1224_3273"
        x="1"
        y="-27"
        width="1353"
        height="1829"
        filterUnits="userSpaceOnUse"
        color-interpolation-filters="sRGB"
      >
        <feFlood flood-opacity="0" result="BackgroundImageFix" />
        <feBlend mode="normal" in="SourceGraphic" in2="BackgroundImageFix" result="shape" />
        <feColorMatrix
          in="SourceAlpha"
          type="matrix"
          values="0 0 0 0 0 0 0 0 0 0 0 0 0 0 0 0 0 0 127 0"
          result="hardAlpha"
        />
        <feOffset dx="14" dy="-27" />
        <feGaussianBlur stdDeviation="54" />
        <feComposite in2="hardAlpha" operator="arithmetic" k2="-1" k3="1" />
        <feColorMatrix
          type="matrix"
          values="0 0 0 0 0.346875 0 0 0 0 0.677438 0 0 0 0 0.75 0 0 0 1 0"
        />
        <feBlend mode="normal" in2="shape" result="effect1_innerShadow_1224_3273" />
        <feColorMatrix
          in="SourceAlpha"
          type="matrix"
          values="0 0 0 0 0 0 0 0 0 0 0 0 0 0 0 0 0 0 127 0"
          result="hardAlpha"
        />
        <feOffset dy="-5" />
        <feGaussianBlur stdDeviation="125" />
        <feComposite in2="hardAlpha" operator="arithmetic" k2="-1" k3="1" />
        <feColorMatrix
          type="matrix"
          values="0 0 0 0 0.156863 0 0 0 0 0.258824 0 0 0 0 0.54902 0 0 0 1 0"
        />
        <feBlend
          mode="normal"
          in2="effect1_innerShadow_1224_3273"
          result="effect2_innerShadow_1224_3273"
        />
      </filter>
      <linearGradient
        id="paint0_linear_1224_3273"
        x1="1149.46"
        y1="155.283"
        x2="-221"
        y2="1802"
        gradientUnits="userSpaceOnUse"
      >
        <stop stop-color="#35C2FF" />
        <stop offset="0.921875" stop-color="#DBD390" />
      </linearGradient>
      <linearGradient
        id="paint1_linear_1224_3273"
        x1="774.493"
        y1="637.156"
        x2="-374.451"
        y2="201.617"
        gradientUnits="userSpaceOnUse"
      >
        <stop stop-color="#6DCBFF" />
        <stop offset="1" stop-color="#5B4BBD" />
      </linearGradient>
      <linearGradient
        id="paint2_linear_1224_3273"
        x1="751.229"
        y1="751.747"
        x2="1447.83"
        y2="424.77"
        gradientUnits="userSpaceOnUse"
      >
        <stop stop-color="#6DCBFF" />
        <stop offset="0.177083" stop-color="#68C4EF" />
        <stop offset="0.361437" stop-color="#72ADF3" />
        <stop offset="0.640625" stop-color="#6593E2" />
        <stop offset="1" stop-color="#5B4BBD" />
      </linearGradient>
    </defs>
  </svg>